<mxfile host="app.diagrams.net" agent="Mozilla/5.0 (Linux; Android 10; K) AppleWebKit/537.36 (KHTML, like Gecko) Chrome/129.0.0.0 Mobile Safari/537.36" version="24.7.17">
  <diagram id="C5RBs43oDa-KdzZeNtuy" name="Page-1">
    <mxGraphModel dx="1436" dy="2480" grid="1" gridSize="10" guides="0" tooltips="1" connect="1" arrows="1" fold="1" page="1" pageScale="1" pageWidth="827" pageHeight="1169" math="0" shadow="0">
      <root>
        <mxCell id="WIyWlLk6GJQsqaUBKTNV-0" />
        <mxCell id="WIyWlLk6GJQsqaUBKTNV-1" parent="WIyWlLk6GJQsqaUBKTNV-0" />
        <mxCell id="6CJQ3tmeyMUDBczJR0vP-0" value="" style="edgeStyle=orthogonalEdgeStyle;rounded=0;orthogonalLoop=1;jettySize=auto;html=1;" edge="1" parent="WIyWlLk6GJQsqaUBKTNV-1" source="6CJQ3tmeyMUDBczJR0vP-1" target="6CJQ3tmeyMUDBczJR0vP-3">
          <mxGeometry relative="1" as="geometry" />
        </mxCell>
        <mxCell id="6CJQ3tmeyMUDBczJR0vP-1" value="START" style="ellipse;whiteSpace=wrap;html=1;" vertex="1" parent="WIyWlLk6GJQsqaUBKTNV-1">
          <mxGeometry x="220" y="510" width="120" height="80" as="geometry" />
        </mxCell>
        <mxCell id="6CJQ3tmeyMUDBczJR0vP-2" value="" style="edgeStyle=orthogonalEdgeStyle;rounded=0;orthogonalLoop=1;jettySize=auto;html=1;" edge="1" parent="WIyWlLk6GJQsqaUBKTNV-1" source="6CJQ3tmeyMUDBczJR0vP-3" target="6CJQ3tmeyMUDBczJR0vP-5">
          <mxGeometry relative="1" as="geometry" />
        </mxCell>
        <mxCell id="6CJQ3tmeyMUDBczJR0vP-3" value="INPUT NAMA MAHASISWA" style="shape=parallelogram;perimeter=parallelogramPerimeter;whiteSpace=wrap;html=1;fixedSize=1;" vertex="1" parent="WIyWlLk6GJQsqaUBKTNV-1">
          <mxGeometry x="200" y="650" width="160" height="60" as="geometry" />
        </mxCell>
        <mxCell id="6CJQ3tmeyMUDBczJR0vP-4" value="" style="edgeStyle=orthogonalEdgeStyle;rounded=0;orthogonalLoop=1;jettySize=auto;html=1;" edge="1" parent="WIyWlLk6GJQsqaUBKTNV-1" source="6CJQ3tmeyMUDBczJR0vP-5" target="6CJQ3tmeyMUDBczJR0vP-7">
          <mxGeometry relative="1" as="geometry" />
        </mxCell>
        <mxCell id="6CJQ3tmeyMUDBczJR0vP-5" value="INPUT NIM" style="shape=parallelogram;perimeter=parallelogramPerimeter;whiteSpace=wrap;html=1;fixedSize=1;" vertex="1" parent="WIyWlLk6GJQsqaUBKTNV-1">
          <mxGeometry x="200" y="770" width="160" height="60" as="geometry" />
        </mxCell>
        <mxCell id="6CJQ3tmeyMUDBczJR0vP-6" value="" style="edgeStyle=orthogonalEdgeStyle;rounded=0;orthogonalLoop=1;jettySize=auto;html=1;" edge="1" parent="WIyWlLk6GJQsqaUBKTNV-1" source="6CJQ3tmeyMUDBczJR0vP-7" target="6CJQ3tmeyMUDBczJR0vP-17">
          <mxGeometry relative="1" as="geometry" />
        </mxCell>
        <mxCell id="6CJQ3tmeyMUDBczJR0vP-7" value="INPUT ALAMAT" style="shape=parallelogram;perimeter=parallelogramPerimeter;whiteSpace=wrap;html=1;fixedSize=1;" vertex="1" parent="WIyWlLk6GJQsqaUBKTNV-1">
          <mxGeometry x="200" y="880" width="160" height="60" as="geometry" />
        </mxCell>
        <mxCell id="6CJQ3tmeyMUDBczJR0vP-8" value="" style="edgeStyle=orthogonalEdgeStyle;rounded=0;orthogonalLoop=1;jettySize=auto;html=1;" edge="1" parent="WIyWlLk6GJQsqaUBKTNV-1" source="6CJQ3tmeyMUDBczJR0vP-9" target="6CJQ3tmeyMUDBczJR0vP-22">
          <mxGeometry relative="1" as="geometry" />
        </mxCell>
        <mxCell id="6CJQ3tmeyMUDBczJR0vP-9" value="INPUT NOMOR PLAT MOTOR" style="shape=parallelogram;perimeter=parallelogramPerimeter;whiteSpace=wrap;html=1;fixedSize=1;" vertex="1" parent="WIyWlLk6GJQsqaUBKTNV-1">
          <mxGeometry x="200" y="1410" width="160" height="60" as="geometry" />
        </mxCell>
        <mxCell id="6CJQ3tmeyMUDBczJR0vP-10" value="" style="edgeStyle=orthogonalEdgeStyle;rounded=0;orthogonalLoop=1;jettySize=auto;html=1;" edge="1" parent="WIyWlLk6GJQsqaUBKTNV-1" source="6CJQ3tmeyMUDBczJR0vP-11" target="6CJQ3tmeyMUDBczJR0vP-9">
          <mxGeometry relative="1" as="geometry" />
        </mxCell>
        <mxCell id="6CJQ3tmeyMUDBczJR0vP-11" value="INPUT NOMOR&amp;nbsp;&lt;div&gt;HP&lt;/div&gt;" style="shape=parallelogram;perimeter=parallelogramPerimeter;whiteSpace=wrap;html=1;fixedSize=1;" vertex="1" parent="WIyWlLk6GJQsqaUBKTNV-1">
          <mxGeometry x="200" y="1300" width="160" height="60" as="geometry" />
        </mxCell>
        <mxCell id="6CJQ3tmeyMUDBczJR0vP-12" value="" style="edgeStyle=orthogonalEdgeStyle;rounded=0;orthogonalLoop=1;jettySize=auto;html=1;" edge="1" parent="WIyWlLk6GJQsqaUBKTNV-1" source="6CJQ3tmeyMUDBczJR0vP-13" target="6CJQ3tmeyMUDBczJR0vP-11">
          <mxGeometry relative="1" as="geometry" />
        </mxCell>
        <mxCell id="6CJQ3tmeyMUDBczJR0vP-13" value="INPUT WARNA MOTOR" style="shape=parallelogram;perimeter=parallelogramPerimeter;whiteSpace=wrap;html=1;fixedSize=1;" vertex="1" parent="WIyWlLk6GJQsqaUBKTNV-1">
          <mxGeometry x="200" y="1200" width="160" height="60" as="geometry" />
        </mxCell>
        <mxCell id="6CJQ3tmeyMUDBczJR0vP-14" value="" style="edgeStyle=orthogonalEdgeStyle;rounded=0;orthogonalLoop=1;jettySize=auto;html=1;" edge="1" parent="WIyWlLk6GJQsqaUBKTNV-1" source="6CJQ3tmeyMUDBczJR0vP-15" target="6CJQ3tmeyMUDBczJR0vP-13">
          <mxGeometry relative="1" as="geometry" />
        </mxCell>
        <mxCell id="6CJQ3tmeyMUDBczJR0vP-15" value="INPUT JENIS MOTOR" style="shape=parallelogram;perimeter=parallelogramPerimeter;whiteSpace=wrap;html=1;fixedSize=1;" vertex="1" parent="WIyWlLk6GJQsqaUBKTNV-1">
          <mxGeometry x="200" y="1090" width="160" height="60" as="geometry" />
        </mxCell>
        <mxCell id="6CJQ3tmeyMUDBczJR0vP-16" value="" style="edgeStyle=orthogonalEdgeStyle;rounded=0;orthogonalLoop=1;jettySize=auto;html=1;" edge="1" parent="WIyWlLk6GJQsqaUBKTNV-1" source="6CJQ3tmeyMUDBczJR0vP-17" target="6CJQ3tmeyMUDBczJR0vP-15">
          <mxGeometry relative="1" as="geometry" />
        </mxCell>
        <mxCell id="6CJQ3tmeyMUDBczJR0vP-17" value="INPUT PRODI&lt;span style=&quot;white-space: pre;&quot;&gt;&#x9;&lt;/span&gt;" style="shape=parallelogram;perimeter=parallelogramPerimeter;whiteSpace=wrap;html=1;fixedSize=1;" vertex="1" parent="WIyWlLk6GJQsqaUBKTNV-1">
          <mxGeometry x="200" y="980" width="160" height="60" as="geometry" />
        </mxCell>
        <mxCell id="6CJQ3tmeyMUDBczJR0vP-18" value="TIDAK SESUAI" style="edgeStyle=orthogonalEdgeStyle;rounded=0;orthogonalLoop=1;jettySize=auto;html=1;entryX=0.5;entryY=1;entryDx=0;entryDy=0;" edge="1" parent="WIyWlLk6GJQsqaUBKTNV-1" source="6CJQ3tmeyMUDBczJR0vP-20" target="6CJQ3tmeyMUDBczJR0vP-26">
          <mxGeometry x="-0.1819" y="-51" relative="1" as="geometry">
            <mxPoint x="469" y="560" as="targetPoint" />
            <Array as="points">
              <mxPoint x="469" y="990" />
              <mxPoint x="655" y="990" />
            </Array>
            <mxPoint as="offset" />
          </mxGeometry>
        </mxCell>
        <mxCell id="6CJQ3tmeyMUDBczJR0vP-19" style="edgeStyle=orthogonalEdgeStyle;rounded=0;orthogonalLoop=1;jettySize=auto;html=1;exitX=1;exitY=0.5;exitDx=0;exitDy=0;entryX=0;entryY=0.5;entryDx=0;entryDy=0;" edge="1" parent="WIyWlLk6GJQsqaUBKTNV-1" source="6CJQ3tmeyMUDBczJR0vP-20" target="6CJQ3tmeyMUDBczJR0vP-23">
          <mxGeometry relative="1" as="geometry" />
        </mxCell>
        <mxCell id="6CJQ3tmeyMUDBczJR0vP-20" value="SESUAI ATAU TIDAK" style="rhombus;whiteSpace=wrap;html=1;" vertex="1" parent="WIyWlLk6GJQsqaUBKTNV-1">
          <mxGeometry x="399" y="1130" width="140" height="140" as="geometry" />
        </mxCell>
        <mxCell id="6CJQ3tmeyMUDBczJR0vP-21" value="" style="edgeStyle=orthogonalEdgeStyle;rounded=0;orthogonalLoop=1;jettySize=auto;html=1;" edge="1" parent="WIyWlLk6GJQsqaUBKTNV-1" source="6CJQ3tmeyMUDBczJR0vP-22" target="6CJQ3tmeyMUDBczJR0vP-20">
          <mxGeometry relative="1" as="geometry" />
        </mxCell>
        <mxCell id="6CJQ3tmeyMUDBczJR0vP-22" value="PENGECEKAN OLEH PETUGAS" style="whiteSpace=wrap;html=1;aspect=fixed;" vertex="1" parent="WIyWlLk6GJQsqaUBKTNV-1">
          <mxGeometry x="414" y="1380" width="110" height="110" as="geometry" />
        </mxCell>
        <mxCell id="6CJQ3tmeyMUDBczJR0vP-23" value="FINISH" style="ellipse;whiteSpace=wrap;html=1;" vertex="1" parent="WIyWlLk6GJQsqaUBKTNV-1">
          <mxGeometry x="710" y="1160" width="120" height="80" as="geometry" />
        </mxCell>
        <mxCell id="6CJQ3tmeyMUDBczJR0vP-25" value="" style="shape=parallelogram;perimeter=parallelogramPerimeter;whiteSpace=wrap;html=1;fixedSize=1;" vertex="1" parent="WIyWlLk6GJQsqaUBKTNV-1">
          <mxGeometry x="570" y="860" width="170" height="70" as="geometry" />
        </mxCell>
        <mxCell id="6CJQ3tmeyMUDBczJR0vP-26" value="TAMPILKAN &#39;ISI ULANG DATA ANDA DENGAN BENAR&#39;" style="text;strokeColor=none;align=center;fillColor=none;html=1;verticalAlign=middle;whiteSpace=wrap;rounded=0;fontSize=16;" vertex="1" parent="WIyWlLk6GJQsqaUBKTNV-1">
          <mxGeometry x="570" y="870" width="170" height="60" as="geometry" />
        </mxCell>
      </root>
    </mxGraphModel>
  </diagram>
</mxfile>
